<?xml version="1.0" standalone="no"?>
<!DOCTYPE svg PUBLIC "-//W3C//DTD SVG 20010904//EN"
 "http://www.w3.org/TR/2001/REC-SVG-20010904/DTD/svg10.dtd">
<svg version="1.0" xmlns="http://www.w3.org/2000/svg"
 width="1024.000000pt" height="1024.000000pt" viewBox="0 0 1024.000000 1024.000000"
 preserveAspectRatio="xMidYMid meet">
<metadata>
Created by potrace 1.16, written by Peter Selinger 2001-2019
</metadata>
<g transform="translate(0.000000,1024.000000) scale(0.100000,-0.100000)"
fill="#000000" stroke="none">
<path d="M4833 7383 c9 -2 23 -2 30 0 6 3 -1 5 -18 5 -16 0 -22 -2 -12 -5z"/>
<path d="M5293 7383 c9 -2 23 -2 30 0 6 3 -1 5 -18 5 -16 0 -22 -2 -12 -5z"/>
<path d="M4758 7373 c7 -3 16 -2 19 1 4 3 -2 6 -13 5 -11 0 -14 -3 -6 -6z"/>
<path d="M5378 7373 c6 -2 18 -2 25 0 6 3 1 5 -13 5 -14 0 -19 -2 -12 -5z"/>
<path d="M5193 7233 c15 -2 39 -2 55 0 15 2 2 4 -28 4 -30 0 -43 -2 -27 -4z"/>
<path d="M5308 7223 c7 -3 16 -2 19 1 4 3 -2 6 -13 5 -11 0 -14 -3 -6 -6z"/>
<path d="M6389 7113 l-24 -28 28 24 c15 14 27 26 27 28 0 8 -8 1 -31 -24z"/>
<path d="M5054 7048 c-69 -74 -166 -191 -140 -168 15 14 31 24 34 23 4 -2 7 2
7 8 0 6 8 16 17 23 10 7 15 15 12 18 -2 3 22 28 54 56 48 41 61 49 73 39 7 -7
5 -2 -5 11 -11 12 -20 22 -21 22 0 0 -15 -15 -31 -32z"/>
<path d="M6132 7048 c-7 -7 -18 -13 -24 -13 -6 0 -13 -6 -15 -12 -7 -21 12
-15 37 12 24 25 25 36 2 13z"/>
<path d="M3823 6955 c0 -33 2 -45 4 -27 2 18 2 45 0 60 -2 15 -4 0 -4 -33z"/>
<path d="M5144 6995 c3 -19 37 -56 47 -49 9 5 35 -36 31 -49 -1 -5 2 -6 7 -3
5 3 34 -22 64 -57 50 -58 54 -64 41 -82 -8 -11 -18 -20 -22 -20 -4 0 -6 -6 -4
-14 2 -9 -2 -12 -13 -7 -9 3 -13 2 -10 -4 3 -6 -1 -10 -9 -10 -9 0 -16 4 -16
9 0 4 -11 7 -25 6 -13 -2 -24 0 -24 3 5 31 -2 43 -21 37 -11 -3 -20 -3 -20 2
0 15 -140 9 -150 -7 -7 -12 -11 -12 -27 2 -12 12 -23 14 -33 8 -13 -8 -13 -11
-1 -22 12 -11 12 -10 6 2 -8 13 -7 13 8 1 9 -7 17 -19 17 -25 0 -8 -2 -8 -8 1
-5 8 -13 6 -30 -7 -12 -10 -22 -21 -22 -25 0 -3 -6 -13 -14 -21 -16 -15 -76
-20 -76 -5 0 5 -9 11 -20 14 -11 3 -20 2 -20 -2 0 -4 -9 -7 -20 -7 -28 0 -25
13 5 20 16 4 22 11 19 21 -4 8 0 22 7 31 7 9 14 23 15 31 2 9 15 30 31 47 15
18 0 3 -35 -33 -35 -36 -77 -83 -93 -103 l-31 -38 113 0 112 0 -7 -341 c-9
-450 -24 -432 186 -222 l158 158 0 202 0 203 81 0 c73 0 79 1 65 16 -20 20
-20 28 -1 20 8 -3 15 -1 15 5 0 6 6 7 13 3 6 -5 -3 10 -22 32 -74 85 -263 294
-266 294 -2 0 -2 -7 -1 -15z m31 -25 c10 -11 16 -20 13 -20 -3 0 -13 9 -23 20
-10 11 -16 20 -13 20 3 0 13 -9 23 -20z m-102 -241 c-5 -5 -17 -3 -29 7 -10 8
-14 13 -9 10 6 -2 17 -1 25 4 17 11 28 -6 13 -21z m47 10 c0 -6 7 -9 15 -5 8
3 15 1 15 -5 0 -14 -42 -7 -48 9 -2 6 1 12 7 12 6 0 11 -5 11 -11z m-159 -62
c-13 -13 -26 -3 -16 12 3 6 11 8 17 5 6 -4 6 -10 -1 -17z m224 13 c3 -5 1 -10
-4 -10 -6 0 -11 5 -11 10 0 6 2 10 4 10 3 0 8 -4 11 -10z"/>
<path d="M6180 6923 c-25 -26 -37 -41 -27 -34 9 7 17 10 17 6 0 -4 7 -2 15 5
9 7 13 15 10 18 -3 3 5 16 17 29 12 13 19 23 17 23 -3 0 -25 -21 -49 -47z"/>
<path d="M3976 6911 c-4 -5 -7 -21 -8 -35 -2 -24 -10 -31 -32 -27 -5 1 -3 -5
4 -14 7 -9 13 -29 12 -45 -1 -25 17 -56 19 -33 0 4 4 43 7 86 8 78 7 84 -2 68z"/>
<path d="M6241 6867 c-6 -8 -8 -17 -4 -20 7 -8 33 11 33 24 0 13 -16 11 -29
-4z"/>
<path d="M3810 6745 c-8 -289 8 -561 46 -785 47 -277 171 -641 285 -833 l40
-68 52 6 c29 3 71 8 94 11 l41 5 -41 67 c-60 99 -150 292 -192 412 -101 291
-151 584 -163 955 -4 121 -8 207 -10 191 -2 -17 -7 -25 -11 -18 -4 6 -17 13
-29 15 -13 2 -29 16 -37 31 -8 14 -10 24 -5 21 6 -4 10 -1 10 4 0 17 -27 13
-34 -6 -11 -28 -30 2 -37 60 -5 40 -7 25 -9 -68z"/>
<path d="M6005 6768 c-184 -168 -758 -705 -908 -848 l-147 -142 -109 99 c-60
54 -110 101 -110 106 -1 4 29 7 67 7 l67 0 3 90 4 90 -84 -1 c-46 -1 -69 -4
-53 -6 52 -7 63 -15 30 -23 -28 -7 -27 -8 13 -9 l42 -1 0 -45 0 -45 -50 0
c-36 0 -52 -5 -59 -17 -8 -14 -11 4 -13 67 l-2 85 -3 -79 -4 -79 -38 37 -38
37 -102 -107 -102 -108 73 -71 c40 -40 177 -174 304 -299 l232 -227 246 315
c135 173 291 372 346 443 56 70 131 166 168 213 36 47 126 160 199 252 73 91
133 174 133 183 0 9 4 14 9 11 5 -3 15 2 22 11 12 15 12 16 -1 8 -22 -14 -50
-16 -51 -5 -1 6 -3 15 -4 20 -1 6 -3 17 -4 26 -1 14 -4 14 -17 3 -13 -10 -17
-10 -24 2 -7 10 2 26 32 56 68 69 40 49 -67 -49z m-1365 -877 c0 -63 -7 -71
-56 -71 l-44 0 0 55 0 55 50 0 50 0 0 -39z"/>
<path d="M6209 6845 c0 -11 -2 -29 -4 -39 -3 -18 -2 -18 18 2 20 21 20 23 4
39 -16 16 -17 16 -18 -2z"/>
<path d="M6279 6696 l-77 -93 -7 -149 c-19 -417 -88 -742 -223 -1046 -2 -5 39
-8 91 -8 l95 0 32 88 c120 329 175 688 168 1099 l-3 202 -76 -93z"/>
<path d="M6165 6771 c-3 -5 -2 -12 3 -15 5 -3 9 1 9 9 0 17 -3 19 -12 6z"/>
<path d="M4152 6660 c2 -27 8 -50 13 -50 6 0 9 17 7 40 -4 42 1 45 66 43 6 -1
12 3 12 8 0 5 -23 9 -50 9 l-51 0 3 -50z"/>
<path d="M4235 6670 c3 -5 8 -10 11 -10 2 0 4 5 4 10 0 6 -5 10 -11 10 -5 0
-7 -4 -4 -10z"/>
<path d="M4310 6485 l0 -65 22 22 c21 21 22 21 29 2 7 -18 8 -18 9 1 2 11 2
26 1 33 -1 6 2 12 7 12 14 0 21 -37 10 -48 -5 -5 -4 -19 3 -35 10 -23 19 -27
51 -27 l39 0 -3 83 -3 82 -82 3 -83 3 0 -66z m160 8 c0 -23 -2 -43 -4 -43 -21
0 -32 15 -30 40 1 17 -3 30 -9 30 -8 0 -8 3 1 8 30 20 42 9 42 -35z"/>
<path d="M4110 6273 l0 -88 58 -3 c32 -2 69 1 82 6 l24 9 -29 7 c-23 6 -26 9
-14 17 10 6 0 9 -31 9 l-45 0 3 45 c4 43 6 45 36 46 23 1 25 3 9 6 -34 6 -28
21 10 26 17 2 2 5 -35 5 l-68 2 0 -87z"/>
<path d="M4620 6350 c0 -5 9 -10 19 -10 11 0 23 5 26 10 4 6 -5 10 -19 10 -14
0 -26 -4 -26 -10z"/>
<path d="M4661 6314 c0 -11 3 -14 6 -6 3 7 2 16 -1 19 -3 4 -6 -2 -5 -13z"/>
<path d="M4503 6195 c0 -12 14 -15 71 -13 l71 2 -62 3 c-35 2 -63 8 -63 13 0
6 -4 10 -8 10 -5 0 -9 -7 -9 -15z"/>
<path d="M4573 6203 c9 -2 25 -2 35 0 9 3 1 5 -18 5 -19 0 -27 -2 -17 -5z"/>
<path d="M4300 6080 l0 -90 90 0 90 0 0 90 0 90 -90 0 -90 0 0 -90z"/>
<path d="M6128 5343 c7 -3 16 -2 19 1 4 3 -2 6 -13 5 -11 0 -14 -3 -6 -6z"/>
<path d="M6188 5343 c6 -2 18 -2 25 0 6 3 1 5 -13 5 -14 0 -19 -2 -12 -5z"/>
<path d="M6380 5100 l0 -170 -120 7 -120 6 0 -39 0 -39 82 3 c46 2 146 -1 223
-7 77 -5 141 -8 143 -6 3 2 -21 51 -52 109 l-56 105 56 87 c30 47 58 92 61
100 4 11 -15 14 -106 14 l-111 0 0 -170z"/>
<path d="M5818 5213 c7 -3 16 -2 19 1 4 3 -2 6 -13 5 -11 0 -14 -3 -6 -6z"/>
<path d="M6324 5125 c0 -49 1 -71 3 -48 2 23 2 64 0 90 -2 26 -3 8 -3 -42z"/>
<path d="M6035 5180 c10 -11 20 -20 23 -20 3 0 -3 9 -13 20 -10 11 -20 20 -23
20 -3 0 3 -9 13 -20z"/>
<path d="M5951 5160 c0 -14 4 -34 9 -45 7 -17 9 -16 9 10 0 17 -4 37 -9 45 -8
12 -10 10 -9 -10z"/>
<path d="M6007 5148 c4 -7 7 -24 7 -38 -1 -22 -1 -23 3 -2 3 14 9 20 16 15 7
-3 3 3 -7 15 -21 24 -32 29 -19 10z"/>
<path d="M4918 5123 c7 -3 16 -2 19 1 4 3 -2 6 -13 5 -11 0 -14 -3 -6 -6z"/>
<path d="M3713 5030 c28 -47 55 -92 60 -101 8 -13 -3 -39 -50 -115 l-61 -99
46 -7 c26 -3 75 -7 110 -7 l62 -1 0 179 0 180 110 -6 110 -6 0 34 0 34 -218 0
-219 0 50 -85z"/>
<path d="M4588 5053 c7 -3 16 -2 19 1 4 3 -2 6 -13 5 -11 0 -14 -3 -6 -6z"/>
<path d="M4538 5043 c6 -2 18 -2 25 0 6 3 1 5 -13 5 -14 0 -19 -2 -12 -5z"/>
<path d="M5019 5007 c25 -27 43 -39 22 -14 -6 8 -10 16 -8 18 1 2 0 3 -2 2 -2
-2 -11 3 -20 9 -9 7 -5 0 8 -15z"/>
<path d="M5116 5021 c-3 -5 2 -15 12 -22 15 -12 16 -12 5 2 -7 9 -10 19 -6 22
3 4 4 7 0 7 -3 0 -8 -4 -11 -9z"/>
<path d="M4318 5013 c7 -3 16 -2 19 1 4 3 -2 6 -13 5 -11 0 -14 -3 -6 -6z"/>
<path d="M5095 4960 c6 -29 11 -34 18 -16 3 8 0 20 -8 26 -12 10 -13 8 -10
-10z"/>
<path d="M4645 4960 c-3 -6 1 -7 9 -4 18 7 21 14 7 14 -6 0 -13 -4 -16 -10z"/>
<path d="M4730 4943 c0 -8 -14 -13 -35 -13 -19 0 -35 -4 -35 -10 0 -9 9 -11
62 -15 9 0 21 -5 25 -9 5 -5 2 -6 -7 -1 -12 6 -13 5 -3 -5 14 -15 61 -23 83
-14 10 4 1 10 -25 18 -25 7 -44 21 -52 36 -7 14 -13 19 -13 13z"/>
<path d="M4775 4940 c3 -5 15 -10 25 -10 10 0 22 5 25 10 4 6 -7 10 -25 10
-18 0 -29 -4 -25 -10z"/>
<path d="M4306 4912 c-3 -5 8 -6 25 -4 16 2 29 6 29 8 0 8 -49 4 -54 -4z"/>
<path d="M5568 4913 c7 -3 16 -2 19 1 4 3 -2 6 -13 5 -11 0 -14 -3 -6 -6z"/>
<path d="M4385 4901 c-3 -5 -2 -12 3 -15 5 -3 9 1 9 9 0 17 -3 19 -12 6z"/>
<path d="M5766 4889 l-119 -19 -89 -94 c-49 -52 -124 -124 -167 -160 -83 -69
-259 -191 -292 -201 -30 -10 -159 72 -341 218 l-35 27 -98 -20 c-53 -11 -100
-20 -103 -20 -25 0 186 -178 306 -258 112 -76 233 -142 258 -142 25 1 189 97
306 180 103 73 309 266 391 368 62 78 111 142 106 141 -2 -1 -58 -10 -123 -20z"/>
<path d="M4859 4880 c-2 -13 -14 -30 -27 -36 -31 -15 -38 -24 -14 -17 29 7 55
38 50 60 -4 14 -6 13 -9 -7z"/>
<path d="M4450 4886 c0 -2 7 -7 16 -10 8 -3 12 -2 9 4 -6 10 -25 14 -25 6z"/>
<path d="M4256 4867 c3 -10 9 -15 12 -12 3 3 0 11 -7 18 -10 9 -11 8 -5 -6z"/>
<path d="M4322 4873 c-6 -3 -10 -9 -6 -14 3 -5 0 -9 -5 -9 -6 0 -11 -7 -11
-15 0 -12 4 -11 20 5 23 23 39 26 36 8 -3 -21 -17 -39 -26 -33 -5 3 -11 1 -14
-3 -3 -5 7 -9 21 -8 22 1 27 6 28 29 2 29 -19 48 -43 40z"/>
<path d="M4676 4862 c-2 -4 4 -8 15 -8 10 0 19 4 19 8 0 4 -6 8 -14 8 -8 0
-17 -4 -20 -8z"/>
<path d="M4141 4844 c0 -11 3 -14 6 -6 3 7 2 16 -1 19 -3 4 -6 -2 -5 -13z"/>
<path d="M4216 4843 c-6 -14 -5 -15 5 -6 7 7 10 15 7 18 -3 3 -9 -2 -12 -12z"/>
<path d="M4411 4814 c0 -11 3 -14 6 -6 3 7 2 16 -1 19 -3 4 -6 -2 -5 -13z"/>
<path d="M4463 4815 c0 -12 3 -12 16 -3 9 7 18 14 20 15 2 2 -5 3 -16 3 -11 0
-20 -7 -20 -15z"/>
<path d="M4246 4812 c-3 -5 3 -21 14 -33 l19 -24 -4 24 c-5 30 -20 47 -29 33z"/>
<path d="M4190 4776 c0 -28 14 -35 23 -12 3 8 -1 20 -9 26 -12 10 -14 8 -14
-14z"/>
<path d="M4386 4782 c-3 -5 1 -9 9 -9 8 0 12 4 9 9 -3 4 -7 8 -9 8 -2 0 -6 -4
-9 -8z"/>
<path d="M4460 4782 c0 -6 -8 -13 -17 -15 -16 -4 -16 -5 -1 -6 18 -1 34 16 24
26 -3 4 -6 1 -6 -5z"/>
<path d="M4548 4783 c7 -3 16 -2 19 1 4 3 -2 6 -13 5 -11 0 -14 -3 -6 -6z"/>
<path d="M4328 4753 c7 -3 16 -2 19 1 4 3 -2 6 -13 5 -11 0 -14 -3 -6 -6z"/>
<path d="M4588 4693 c6 -2 18 -2 25 0 6 3 1 5 -13 5 -14 0 -19 -2 -12 -5z"/>
<path d="M4548 4683 c7 -3 16 -2 19 1 4 3 -2 6 -13 5 -11 0 -14 -3 -6 -6z"/>
<path d="M4054 4648 c-3 -4 39 -8 92 -8 54 0 95 2 93 4 -8 9 -180 12 -185 4z"/>
<path d="M3330 3858 c0 -17 3 -19 9 -9 5 7 15 17 22 22 10 6 8 9 -8 9 -17 0
-23 -6 -23 -22z"/>
<path d="M4606 3865 c-3 -8 -1 -15 4 -15 6 0 10 4 10 9 0 5 8 12 18 14 13 4
12 5 -4 6 -12 0 -24 -6 -28 -14z"/>
<path d="M5580 3855 c-247 -69 -359 -333 -240 -565 57 -111 186 -196 315 -207
122 -10 239 34 323 120 l33 34 -55 46 c-53 46 -71 55 -78 40 -10 -23 -76 -65
-122 -78 -171 -50 -333 123 -281 300 50 175 243 229 385 108 l42 -36 51 51 51
52 -43 44 c-88 90 -248 128 -381 91z"/>
<path d="M2797 3845 c-46 -16 -63 -29 -25 -20 39 10 67 -2 61 -25 -4 -14 0
-20 11 -20 9 0 16 -4 16 -10 0 -5 6 -9 13 -7 6 1 11 -4 10 -10 -2 -7 2 -13 7
-13 6 0 10 5 10 10 0 6 6 9 13 8 6 -2 11 3 10 10 -2 6 2 12 8 12 6 0 8 9 4 21
-5 14 -3 20 7 18 25 -3 39 1 33 10 -3 6 3 14 12 20 28 16 -144 13 -190 -4z"/>
<path d="M3473 3815 c0 -27 2 -38 4 -22 2 15 2 37 0 50 -2 12 -4 0 -4 -28z"/>
<path d="M4442 3840 c0 -14 2 -19 5 -12 2 6 2 18 0 25 -3 6 -5 1 -5 -13z"/>
<path d="M4754 3690 c0 -91 2 -128 3 -82 2 45 2 119 0 165 -1 45 -3 8 -3 -83z"/>
<path d="M4129 3823 c-13 -16 -12 -17 4 -4 9 7 17 15 17 17 0 8 -8 3 -21 -13z"/>
<path d="M7240 3745 l0 -85 -40 0 -40 0 0 -60 0 -60 39 0 39 0 4 -172 c3 -194
12 -224 77 -262 46 -27 141 -26 204 2 51 23 50 17 27 102 -7 26 -22 29 -72 15
-22 -5 -32 -2 -53 19 -25 25 -26 27 -23 158 l3 133 68 3 67 3 0 59 0 60 -65 0
-65 0 0 85 0 85 -85 0 -85 0 0 -85z"/>
<path d="M2702 3795 c-28 -23 -62 -80 -62 -104 0 -6 10 -10 23 -8 18 2 22 -2
20 -25 -1 -16 2 -28 7 -28 5 0 7 -7 3 -15 -3 -9 -8 -14 -10 -11 -3 2 -14 -5
-24 -15 -21 -21 -19 -48 6 -69 12 -10 13 -8 10 8 -4 24 21 62 41 62 9 0 12 -5
8 -12 -5 -7 -3 -8 5 -3 9 5 10 10 2 18 -7 7 -2 14 16 24 35 18 40 17 69 -14
l26 -28 -21 29 c-25 35 -26 54 -4 86 13 20 14 22 2 13 -9 -7 -20 -9 -24 -5 -5
4 -5 0 0 -8 4 -8 -4 -4 -17 10 -14 14 -23 28 -21 33 2 4 -7 11 -21 17 -26 9
-27 27 -3 58 15 20 1 14 -31 -13z"/>
<path d="M3127 3814 c-3 -3 -3 -12 0 -20 3 -8 0 -20 -6 -28 -9 -10 -8 -15 4
-20 10 -4 15 1 15 14 0 11 5 20 11 20 5 0 8 -4 5 -9 -3 -5 0 -14 8 -20 10 -8
15 -5 24 14 6 14 8 24 4 24 -20 -3 -33 2 -27 11 4 6 -1 7 -11 3 -12 -4 -15 -3
-10 5 7 12 -6 17 -17 6z"/>
<path d="M4048 3773 c12 -2 30 -2 40 0 9 3 -1 5 -23 4 -22 0 -30 -2 -17 -4z"/>
<path d="M4290 3635 c0 -71 2 -126 5 -123 8 7 7 239 0 246 -3 3 -5 -52 -5
-123z"/>
<path d="M2885 3729 c-15 -6 -11 -8 18 -8 20 -1 37 1 37 3 0 9 -37 12 -55 5z"/>
<path d="M3151 3732 c-1 -8 -6 -10 -13 -6 -10 5 -10 4 -1 -6 15 -16 28 -8 20
12 -4 11 -6 11 -6 0z"/>
<path d="M4048 3733 c12 -2 30 -2 40 0 9 3 -1 5 -23 4 -22 0 -30 -2 -17 -4z"/>
<path d="M3020 3709 c-13 -9 -12 -10 3 -5 9 3 17 2 17 -3 0 -11 69 -31 75 -21
15 24 -67 50 -95 29z"/>
<path d="M6287 3670 c-170 -43 -264 -216 -211 -386 24 -79 97 -153 174 -180
76 -25 190 -24 251 3 43 19 119 78 119 92 0 3 -22 21 -49 39 l-48 33 -37 -25
c-75 -51 -171 -43 -226 20 -17 20 -29 41 -27 47 3 9 62 11 215 9 242 -3 230
-8 213 95 -18 114 -66 185 -154 229 -55 29 -158 39 -220 24z m153 -135 c32
-16 60 -61 60 -95 0 -19 -6 -20 -130 -20 -145 0 -154 4 -125 60 33 63 127 90
195 55z"/>
<path d="M7047 3668 c-21 -6 -56 -27 -78 -48 l-39 -37 0 44 0 44 -82 -3 -83
-3 -3 -287 -2 -288 85 0 85 0 0 174 c0 163 1 175 22 201 26 33 91 64 136 65
l32 0 0 75 c0 83 1 82 -73 63z"/>
<path d="M3331 3578 c1 -46 4 -73 6 -60 2 12 9 20 14 17 5 -3 6 1 3 9 -4 11 0
16 10 16 9 0 16 5 16 10 0 6 -5 10 -11 10 -6 0 -9 6 -6 14 3 8 -1 17 -10 20
-9 4 -13 14 -10 26 3 11 1 20 -4 20 -5 0 -8 -37 -8 -82z"/>
<path d="M3600 3555 c-58 -58 -108 -105 -112 -105 -5 0 -8 32 -8 70 0 68 -1
70 -25 70 -14 0 -28 7 -31 15 -7 18 -28 20 -21 3 2 -7 0 -21 -5 -32 -7 -12 -7
-16 0 -12 6 3 14 2 17 -4 4 -6 3 -10 -2 -9 -23 4 -35 -2 -29 -16 3 -8 1 -15
-5 -15 -6 0 -7 -5 -4 -10 4 -6 12 -9 18 -8 7 2 14 -2 16 -7 12 -26 40 -45 74
-49 20 -2 42 -8 48 -12 9 -5 10 -2 6 9 -3 9 -2 19 3 22 10 6 14 -15 11 -44 -2
-7 2 -10 8 -7 5 4 9 26 7 51 -1 27 2 43 8 42 6 -1 10 3 9 9 -1 6 11 24 27 39
17 16 30 26 30 22 0 -4 11 0 24 8 16 11 26 13 31 6 10 -16 25 -13 25 5 0 11 6
15 18 11 15 -3 19 1 18 24 -1 24 -5 29 -26 29 -19 0 -52 -27 -130 -105z"/>
<path d="M3981 3638 c0 -16 2 -18 6 -8 3 8 11 18 17 22 7 5 4 8 -6 8 -12 0
-18 -7 -17 -22z"/>
<path d="M2632 3615 c0 -16 2 -22 5 -12 2 9 2 23 0 30 -3 6 -5 -1 -5 -18z"/>
<path d="M3785 3599 c-16 -10 -29 -22 -28 -26 1 -5 -6 -17 -15 -28 -14 -16
-14 -17 -1 -7 9 6 18 10 21 7 2 -3 19 10 37 29 38 39 30 52 -14 25z"/>
<path d="M2875 3560 c2 -4 -7 -13 -20 -20 -14 -7 -25 -17 -25 -22 0 -4 -5 -8
-10 -8 -6 0 -21 -11 -34 -25 -15 -16 -30 -23 -40 -19 -9 3 -16 4 -16 1 0 -9
162 -59 168 -52 3 3 0 5 -7 5 -7 0 -11 10 -9 23 2 13 10 22 20 22 9 0 20 4 24
8 4 4 18 7 31 7 13 0 26 8 30 18 4 9 10 20 15 23 5 3 -23 15 -61 26 -39 11
-69 17 -66 13z m100 -50 c-3 -5 -12 -10 -18 -10 -7 0 -6 4 3 10 19 12 23 12
15 0z"/>
<path d="M3692 3479 c2 -7 -8 -18 -22 -25 -13 -7 -28 -22 -32 -34 -4 -12 -12
-19 -17 -16 -5 3 -11 0 -14 -8 -6 -16 23 -17 36 -1 5 6 6 -2 3 -17 -5 -24 -3
-28 14 -28 12 0 30 5 41 11 20 10 20 11 -2 45 -20 33 -20 36 -4 53 11 13 13
21 5 26 -6 3 -9 1 -8 -6z"/>
<path d="M3117 3442 c-8 -18 -11 -30 -6 -27 5 4 9 2 9 -4 0 -5 -6 -12 -12 -14
-9 -4 -9 -6 -1 -6 6 -1 9 -10 6 -21 -4 -14 0 -20 11 -20 9 0 16 5 16 12 0 6 8
4 19 -6 15 -13 20 -14 24 -4 4 10 8 10 17 -2 9 -12 11 -8 6 18 -7 38 -43 95
-56 87 -5 -3 -10 0 -12 7 -3 7 -12 -2 -21 -20z"/>
<path d="M4292 3445 c0 -16 2 -22 5 -12 2 9 2 23 0 30 -3 6 -5 -1 -5 -18z"/>
<path d="M4900 3410 l0 -60 150 0 150 0 0 60 0 60 -150 0 -150 0 0 -60z"/>
<path d="M3569 3388 c-6 -13 -30 -42 -52 -65 -23 -24 -38 -43 -34 -43 4 0 -4
-18 -18 -40 -24 -38 -24 -40 -5 -40 15 0 20 7 20 28 0 19 12 40 40 67 21 21
37 42 34 47 -3 4 -3 8 1 8 3 0 18 -20 33 -43 l27 -44 1 41 c0 25 -6 45 -16 53
-17 13 -20 35 -5 45 6 5 6 8 -2 8 -7 0 -17 -10 -24 -22z"/>
<path d="M4292 3390 c0 -14 2 -19 5 -12 2 6 2 18 0 25 -3 6 -5 1 -5 -13z"/>
<path d="M4752 3353 c-1 -29 -6 -53 -12 -53 -5 0 -7 8 -3 18 6 15 4 15 -15 -2
-12 -10 -19 -23 -16 -27 3 -5 -3 -9 -13 -9 -15 0 -15 -2 -3 -9 8 -6 18 -7 24
-4 5 4 7 -3 4 -15 -3 -12 -3 -21 1 -20 27 3 31 -5 30 -64 0 -35 -3 -57 -6 -50
-2 6 -20 12 -39 12 -34 0 -35 0 -28 35 6 36 -9 48 -33 24 -8 -8 -13 -8 -17 0
-15 24 -26 8 -26 -39 l0 -50 75 0 c53 0 77 4 81 13 2 7 3 76 1 152 -1 77 -4
116 -5 88z m-5 -105 c-3 -8 -6 -5 -6 6 -1 11 2 17 5 13 3 -3 4 -12 1 -19z
m-92 -88 c3 -5 2 -10 -4 -10 -5 0 -13 5 -16 10 -3 6 -2 10 4 10 5 0 13 -4 16
-10z"/>
<path d="M3027 3359 c9 -34 8 -91 -1 -111 -6 -13 -4 -18 9 -18 12 0 15 -5 11
-16 -3 -9 -6 -18 -6 -20 0 -3 -5 -2 -11 2 -7 4 -10 1 -7 -7 3 -8 11 -15 19
-15 8 -1 20 -2 27 -3 6 0 12 -10 12 -21 0 -23 12 -25 43 -8 37 19 58 61 32 64
-5 0 -16 2 -23 2 -7 1 -10 7 -6 14 5 7 2 9 -8 6 -10 -4 -14 0 -14 15 1 13 -9
26 -25 34 -23 11 -35 34 -43 85 -1 3 -4 10 -8 14 -4 3 -5 -4 -1 -17z"/>
<path d="M3070 3365 c0 -8 2 -15 4 -15 2 0 6 7 10 15 3 8 1 15 -4 15 -6 0 -10
-7 -10 -15z"/>
<path d="M3989 3358 c-5 -17 -4 -48 3 -48 4 0 7 11 6 25 -2 21 -6 31 -9 23z"/>
<path d="M4290 3255 c0 -60 2 -106 5 -103 3 3 6 49 6 103 0 54 -3 100 -6 103
-3 3 -5 -43 -5 -103z"/>
<path d="M2629 3262 c-28 -63 -28 -77 4 -93 21 -9 21 -9 4 5 -18 14 -18 15 4
33 12 10 33 29 47 43 13 14 32 24 41 22 9 -2 -2 8 -24 22 -22 14 -42 25 -45
25 -3 0 -17 -25 -31 -57z"/>
<path d="M3330 3265 c0 -27 3 -46 6 -42 3 3 6 22 6 42 0 20 -3 39 -6 42 -3 4
-6 -15 -6 -42z"/>
<path d="M3779 3270 c0 -3 -2 -17 -3 -32 -1 -15 -10 -34 -21 -42 -19 -15 -19
-15 3 -9 18 4 21 2 16 -13 -3 -11 -2 -15 3 -8 4 6 23 10 40 8 l33 -2 -16 27
c-21 35 -53 77 -55 71z"/>
<path d="M2791 3244 c5 -30 -3 -44 -26 -44 -16 0 -25 -6 -25 -15 0 -8 -15 -21
-32 -28 l-33 -13 45 -17 c75 -27 93 -31 85 -17 -4 6 -2 24 5 40 9 21 17 27 36
25 13 -1 24 1 24 4 0 3 3 15 6 27 5 17 0 22 -23 27 -15 3 -36 9 -46 13 -10 3
-17 3 -16 -2z"/>
<path d="M3660 3198 c0 -12 42 -78 50 -78 15 0 21 34 8 41 -7 4 -16 6 -20 6
-4 -1 -14 7 -22 18 -9 11 -16 17 -16 13z"/>
<path d="M4132 3155 c0 -16 2 -22 5 -12 2 9 2 23 0 30 -3 6 -5 -1 -5 -18z"/>
<path d="M3980 3116 c0 -13 11 -16 58 -15 47 1 52 2 29 9 -16 5 -35 6 -43 3
-8 -3 -21 0 -29 7 -12 10 -15 9 -15 -4z"/>
<path d="M2977 3114 c-1 -2 -18 -6 -37 -9 -19 -3 -36 -8 -39 -11 -7 -7 93 -3
114 5 17 7 17 8 -8 13 -14 3 -28 4 -30 2z"/>
<path d="M3738 3103 c7 -3 16 -2 19 1 4 3 -2 6 -13 5 -11 0 -14 -3 -6 -6z"/>
<path d="M4343 3103 c9 -2 23 -2 30 0 6 3 -1 5 -18 5 -16 0 -22 -2 -12 -5z"/>
</g>
</svg>
